<svg id="01de5252-a4ea-4d29-8c27-1d514bc116c5" data-name="Layer 1" xmlns="http://www.w3.org/2000/svg" width="32" height="32" viewBox="0 0 32 32"><title>Untitled-3</title><path d="M31,6.17143A1.7742,1.7742,0,0,1,29.28571,8H2.71429A1.7742,1.7742,0,0,1,1,6.17143V5.82857A1.7742,1.7742,0,0,1,2.71429,4H29.28571A1.7742,1.7742,0,0,1,31,5.82857V6.17143Z" style="fill:#686868"/><path d="M31,16.17143A1.7742,1.7742,0,0,1,29.28571,18H2.71429A1.7742,1.7742,0,0,1,1,16.17143V15.82857A1.7742,1.7742,0,0,1,2.71429,14H29.28571A1.7742,1.7742,0,0,1,31,15.82857v0.34286Z" style="fill:#686868"/><path d="M31,26.17143A1.7742,1.7742,0,0,1,29.28571,28H2.71429A1.7742,1.7742,0,0,1,1,26.17143V25.82857A1.7742,1.7742,0,0,1,2.71429,24H29.28571A1.7742,1.7742,0,0,1,31,25.82857v0.34286Z" style="fill:#686868"/></svg>